#N canvas 72 25 1280 702 12;
#X obj 259 329 dac~;
#X obj 224 292 biquad~ \$1;
#X msg 243 134 \; pd dsp 1 \;;
#X msg 162 357 start;
#X msg 322 362 stop;
#X obj 322 330 bng 15 250 50 0 empty empty empty 17 7 0 10 -262144
-1 -1;
#X obj 165 93 r startFiltering;
#X obj 164 134 delay 50;
#X msg 379 346 \; pd quit;
#N canvas 347 394 1280 702 filters 0;
#X text 1155 179 HighPass;
#X obj 318 128 bng 15 250 50 0 empty empty empty 17 7 0 10 -262144
-1 -1;
#X obj 131 182 bng 15 250 50 0 empty empty empty 17 7 0 10 -262144
-1 -1;
#X obj 131 159 delay 10;
#X msg 407 165 0;
#X msg 309 164 1;
#X msg 258 163 0.75;
#X msg 205 164 0.2;
#X msg 361 164 -0.2;
#X obj 204 195 s a1;
#X obj 258 195 s a2;
#X obj 309 195 s a3;
#X obj 361 195 s a4;
#X obj 407 195 s a5;
#X obj 318 89 r a;
#X msg 1052 208 0.1;
#X msg 1207 208 1;
#X msg 1106 208 0;
#X msg 1152 208 0;
#X msg 1255 208 0;
#X msg 1053 278 1.414;
#X msg 1108 278 -0.9998;
#X msg 1170 278 1;
#X msg 1217 278 -1.414;
#X msg 1279 278 0;
#X text 1157 248 Bandpass;
#X obj 317 284 bng 15 250 50 0 empty empty empty 17 7 0 10 -262144
-1 -1;
#X obj 130 338 bng 15 250 50 0 empty empty empty 17 7 0 10 -262144
-1 -1;
#X obj 130 315 delay 10;
#X msg 406 321 0;
#X msg 257 319 0.75;
#X msg 204 320 0.2;
#X obj 203 351 s a1;
#X obj 257 351 s a2;
#X obj 308 351 s a3;
#X obj 360 351 s a4;
#X obj 406 351 s a5;
#X obj 312 443 bng 15 250 50 0 empty empty empty 17 7 0 10 -262144
-1 -1;
#X obj 125 497 bng 15 250 50 0 empty empty empty 17 7 0 10 -262144
-1 -1;
#X obj 125 474 delay 10;
#X msg 401 480 0;
#X obj 198 510 s a1;
#X obj 252 510 s a2;
#X obj 303 510 s a3;
#X obj 355 510 s a4;
#X obj 401 510 s a5;
#X obj 306 610 bng 15 250 50 0 empty empty empty 17 7 0 10 -262144
-1 -1;
#X obj 119 664 bng 15 250 50 0 empty empty empty 17 7 0 10 -262144
-1 -1;
#X obj 119 641 delay 10;
#X msg 395 647 0;
#X msg 297 646 1;
#X msg 193 646 0.2;
#X obj 192 677 s a1;
#X obj 246 677 s a2;
#X obj 297 677 s a3;
#X obj 349 677 s a4;
#X obj 395 677 s a5;
#X obj 699 133 bng 15 250 50 0 empty empty empty 17 7 0 10 -262144
-1 -1;
#X obj 512 187 bng 15 250 50 0 empty empty empty 17 7 0 10 -262144
-1 -1;
#X obj 512 164 delay 10;
#X msg 788 170 0;
#X msg 690 169 1;
#X msg 586 169 0.2;
#X obj 585 200 s a1;
#X obj 639 200 s a2;
#X obj 690 200 s a3;
#X obj 742 200 s a4;
#X obj 788 200 s a5;
#X obj 317 245 r b;
#X obj 312 404 r c;
#X obj 306 570 r d;
#X obj 699 94 r e;
#X obj 694 294 bng 15 250 50 0 empty empty empty 17 7 0 10 -262144
-1 -1;
#X obj 507 348 bng 15 250 50 0 empty empty empty 17 7 0 10 -262144
-1 -1;
#X obj 507 325 delay 10;
#X msg 783 331 0;
#X obj 580 361 s a1;
#X obj 634 361 s a2;
#X obj 685 361 s a3;
#X obj 737 361 s a4;
#X obj 783 361 s a5;
#X obj 694 255 r f;
#X obj 690 454 bng 15 250 50 0 empty empty empty 17 7 0 10 -262144
-1 -1;
#X obj 503 508 bng 15 250 50 0 empty empty empty 17 7 0 10 -262144
-1 -1;
#X obj 503 485 delay 10;
#X msg 779 491 0;
#X msg 681 490 1;
#X obj 576 521 s a1;
#X obj 630 521 s a2;
#X obj 681 521 s a3;
#X obj 733 521 s a4;
#X obj 779 521 s a5;
#X obj 690 415 r g;
#X text 379 134 Lowpass1;
#X msg 639 167 0.7;
#X msg 742 169 -0.3;
#X msg 309 320 1;
#X msg 360 320 -0.5;
#X msg 634 329 -0.3;
#X msg 737 330 -0.3;
#X msg 581 330 1;
#X msg 303 480 1;
#X msg 198 479 0.05;
#X msg 356 480 -0.05;
#X msg 253 477 0.5;
#X msg 577 490 0.2;
#X msg 629 488 0.6;
#X msg 734 490 -0.1;
#X msg 685 330 0.9;
#X msg 245 645 0.5;
#X msg 349 647 -0.1;
#X obj 558 685 s a;
#X obj 589 685 s b;
#X obj 616 685 s c;
#X obj 649 685 s d;
#X obj 685 685 s e;
#X obj 719 685 s f;
#X obj 590 653 select 0 1 2 3 4 5 6;
#X obj 591 619 r filtertype;
#X text 526 581 To apply the different filters from python;
#X text 379 288 Lowpass2;
#X text 758 137 Lowpass5;
#X text 757 300 Lowpass6;
#X text 746 461 Lowpass7;
#X text 380 443 Lowpass3;
#X text 382 609 Lowpass4;
#X obj 1075 679 outlet;
#X obj 1071 609 pack f f f f f;
#X obj 1025 566 r a1;
#X obj 1062 566 r a2;
#X obj 1100 566 r a3;
#X obj 1142 566 r a4;
#X obj 1178 566 r a5;
#X obj 751 685 s g;
#X connect 1 0 3 0;
#X connect 1 0 7 0;
#X connect 1 0 6 0;
#X connect 1 0 5 0;
#X connect 1 0 8 0;
#X connect 1 0 4 0;
#X connect 2 0 9 0;
#X connect 3 0 2 0;
#X connect 4 0 13 0;
#X connect 5 0 11 0;
#X connect 6 0 10 0;
#X connect 7 0 9 0;
#X connect 8 0 12 0;
#X connect 14 0 1 0;
#X connect 26 0 28 0;
#X connect 26 0 31 0;
#X connect 26 0 30 0;
#X connect 26 0 96 0;
#X connect 26 0 97 0;
#X connect 26 0 29 0;
#X connect 27 0 32 0;
#X connect 28 0 27 0;
#X connect 29 0 36 0;
#X connect 30 0 33 0;
#X connect 31 0 32 0;
#X connect 37 0 39 0;
#X connect 37 0 102 0;
#X connect 37 0 104 0;
#X connect 37 0 101 0;
#X connect 37 0 103 0;
#X connect 37 0 40 0;
#X connect 38 0 41 0;
#X connect 39 0 38 0;
#X connect 40 0 45 0;
#X connect 46 0 48 0;
#X connect 46 0 51 0;
#X connect 46 0 109 0;
#X connect 46 0 50 0;
#X connect 46 0 110 0;
#X connect 46 0 49 0;
#X connect 47 0 52 0;
#X connect 48 0 47 0;
#X connect 49 0 56 0;
#X connect 50 0 54 0;
#X connect 51 0 52 0;
#X connect 57 0 59 0;
#X connect 57 0 60 0;
#X connect 57 0 95 0;
#X connect 57 0 61 0;
#X connect 57 0 94 0;
#X connect 57 0 62 0;
#X connect 58 0 63 0;
#X connect 59 0 58 0;
#X connect 60 0 67 0;
#X connect 61 0 65 0;
#X connect 62 0 63 0;
#X connect 68 0 26 0;
#X connect 69 0 37 0;
#X connect 70 0 46 0;
#X connect 71 0 57 0;
#X connect 72 0 74 0;
#X connect 72 0 100 0;
#X connect 72 0 98 0;
#X connect 72 0 108 0;
#X connect 72 0 99 0;
#X connect 72 0 75 0;
#X connect 73 0 76 0;
#X connect 74 0 73 0;
#X connect 75 0 80 0;
#X connect 81 0 72 0;
#X connect 82 0 84 0;
#X connect 82 0 105 0;
#X connect 82 0 106 0;
#X connect 82 0 86 0;
#X connect 82 0 107 0;
#X connect 82 0 85 0;
#X connect 83 0 87 0;
#X connect 84 0 83 0;
#X connect 85 0 91 0;
#X connect 86 0 89 0;
#X connect 92 0 82 0;
#X connect 94 0 64 0;
#X connect 95 0 66 0;
#X connect 96 0 34 0;
#X connect 97 0 35 0;
#X connect 98 0 77 0;
#X connect 99 0 79 0;
#X connect 100 0 76 0;
#X connect 101 0 43 0;
#X connect 102 0 41 0;
#X connect 103 0 44 0;
#X connect 104 0 42 0;
#X connect 105 0 87 0;
#X connect 106 0 88 0;
#X connect 107 0 90 0;
#X connect 108 0 78 0;
#X connect 109 0 53 0;
#X connect 110 0 55 0;
#X connect 117 0 111 0;
#X connect 117 1 112 0;
#X connect 117 2 113 0;
#X connect 117 3 114 0;
#X connect 117 4 115 0;
#X connect 117 5 116 0;
#X connect 117 6 133 0;
#X connect 118 0 117 0;
#X connect 127 0 126 0;
#X connect 128 0 127 0;
#X connect 129 0 127 1;
#X connect 130 0 127 2;
#X connect 131 0 127 3;
#X connect 132 0 127 4;
#X restore 329 253 pd filters;
#N canvas 453 91 827 634 readFile 0;
#X obj 119 45 inlet;
#X obj 165 355 outlet~;
#X obj 229 355 outlet;
#X obj 165 188 list trim;
#X obj 165 149 list prepend open;
#X obj 165 285 readsf~;
#X obj 165 110 r fileName;
#X msg 118 167 1;
#X msg 142 244 0;
#X obj 139 72 inlet;
#X connect 0 0 7 0;
#X connect 3 0 5 0;
#X connect 4 0 3 0;
#X connect 5 0 1 0;
#X connect 5 1 2 0;
#X connect 6 0 4 0;
#X connect 7 0 5 0;
#X connect 8 0 5 0;
#X connect 9 0 8 0;
#X restore 222 197 pd readFile;
#N canvas 2941 327 450 300 writeFile 0;
#X obj 114 174 list trim;
#X obj 114 135 list prepend open;
#X obj 114 96 r newFileName;
#X obj 87 205 writesf~;
#X obj 81 40 inlet;
#X obj 71 17 inlet~;
#X obj 98 67 inlet;
#X connect 0 0 3 0;
#X connect 1 0 0 0;
#X connect 2 0 1 0;
#X connect 4 0 3 0;
#X connect 5 0 3 0;
#X connect 6 0 3 0;
#X restore 222 423 pd writeFile;
#X obj 669 66 cnv 15 400 300 empty empty empty 20 12 0 14 -233017 -66577
0;
#X msg 727 240 \; startFiltering 1 \;;
#X msg 728 174 \; fileName files/database/73ffc53f.wav \;;
#X obj 729 135 bng 15 250 50 0 empty empty empty 17 7 0 10 -262144
-1 -1;
#X text 754 134 For testing;
#X msg 728 207 \; newFileName yesItWorks.wav \;;
#X msg 728 277 \; a 1 \;;
#X connect 1 0 0 1;
#X connect 1 0 0 0;
#X connect 1 0 11 0;
#X connect 3 0 11 1;
#X connect 4 0 11 2;
#X connect 5 0 4 0;
#X connect 5 0 8 0;
#X connect 6 0 7 0;
#X connect 6 0 2 0;
#X connect 7 0 3 0;
#X connect 7 0 10 0;
#X connect 9 0 1 0;
#X connect 10 0 1 0;
#X connect 10 1 5 0;
#X connect 15 0 14 0;
#X connect 15 0 17 0;
#X connect 15 0 13 0;
#X connect 15 0 18 0;
