#N canvas 0 25 1680 997 12;
#X obj 658 846 pack f f f f f;
#X msg 953 372 0.1;
#X obj 967 298 bng 15 250 50 0 empty empty empty 17 7 0 10 -262144
-1 -1;
#X obj 513 862 dac~;
#X obj 669 720 biquad~ \$1;
#X msg 457 471 \; pd dsp 1 \;;
#X msg 1108 372 1;
#X msg 1007 372 0;
#X obj 870 442 bng 15 250 50 0 empty empty empty 17 7 0 10 -262144
-1 -1;
#X msg 1053 372 0;
#X obj 870 403 delay 10;
#X obj 917 101 bng 15 250 50 0 empty empty empty 17 7 0 10 -262144
-1 -1;
#X obj 830 170 bng 15 250 50 0 empty empty empty 17 7 0 10 -262144
-1 -1;
#X obj 830 131 delay 10;
#X msg 889 161 1.414;
#X msg 944 161 -0.9998;
#X msg 1006 161 1;
#X msg 1053 161 -1.414;
#X msg 1115 161 0;
#X obj 328 465 writesf~;
#X msg 402 388 start;
#X msg 396 441 stop;
#X obj 1380 298 bng 15 250 50 0 empty empty empty 17 7 0 10 -262144
-1 -1;
#X obj 1259 411 bng 15 250 50 0 empty empty empty 17 7 0 10 -262144
-1 -1;
#X obj 1259 372 delay 10;
#X msg 1556 372 0;
#X msg 1462 372 1;
#X msg 1156 372 0;
#X msg 1402 372 0.75;
#X msg 1347 372 0.2;
#X msg 1500 372 -0.2;
#X text 1453 302 Lowpass;
#X text 1153 160 Bandpass;
#X text 1052 302 HighPass;
#X obj 1541 820 bng 15 250 50 0 empty empty empty 17 7 0 10 -262144
-1 -1;
#X obj 889 200 s a1;
#X obj 944 200 s a2;
#X obj 1006 200 s a3;
#X obj 1053 200 s a4;
#X obj 1115 200 s a5;
#X obj 950 433 s a1;
#X obj 1004 433 s a2;
#X obj 1055 433 s a3;
#X obj 1107 433 s a4;
#X obj 1153 433 s a5;
#X obj 1332 433 s a1;
#X obj 1386 433 s a2;
#X obj 1437 433 s a3;
#X obj 1489 433 s a4;
#X obj 1535 433 s a5;
#X obj 612 803 r a1;
#X obj 649 803 r a2;
#X obj 687 803 r a3;
#X obj 729 803 r a4;
#X obj 765 803 r a5;
#X obj 383 233 list trim;
#X obj 383 272 print;
#X obj 383 194 list prepend open;
#X obj 1660 846 r c1;
#X obj 1704 846 r c2;
#X obj 1748 846 r c3;
#X obj 1791 846 r c4;
#X obj 1830 846 r c5;
#X msg 1622 906 \$1;
#X msg 1729 906 \$1;
#X msg 1666 906 \$1;
#X msg 1767 906 \$1;
#X msg 1822 906 \$1;
#X obj 1622 945 s a1;
#X obj 1666 945 s a2;
#X obj 1729 945 s a3;
#X obj 1767 945 s a4;
#X obj 1822 945 s a5;
#X obj 1541 781 r alternate;
#X msg 1540 853 \; c1 1 \; c2 2 \; c3 3 \; c4 4 \; c5 5 \;;
#X msg 1686 781 \; alternate (bang) \;;
#X obj 631 231 list trim;
#X obj 631 270 print;
#X obj 634 398 readsf~;
#X obj 631 192 list prepend open;
#X msg 525 410 1;
#X msg 583 412 0;
#X obj 675 442 bng 15 250 50 0 empty empty empty 17 7 0 10 -262144
-1 -1;
#X obj 483 325 r startFiltering;
#X msg 1236 656 \; startFiltering 1 \;;
#X obj 685 582 *~ 1;
#X obj 1384 86 bng 15 250 50 0 empty empty empty 17 7 0 10 -262144
-1 -1;
#X obj 1297 155 bng 15 250 50 0 empty empty empty 17 7 0 10 -262144
-1 -1;
#X obj 1297 116 delay 10;
#X msg 1356 146 1.414;
#X msg 1411 146 -0.9998;
#X msg 1473 146 1;
#X msg 1520 146 -1.414;
#X msg 1582 146 0;
#X text 1620 145 Bandpass;
#X obj 1356 185 s a1;
#X obj 1411 185 s a2;
#X obj 1473 185 s a3;
#X obj 1520 185 s a4;
#X obj 1582 185 s a5;
#X obj 1758 192 bng 15 250 50 0 empty empty empty 17 7 0 10 -262144
-1 -1;
#X obj 1671 261 bng 15 250 50 0 empty empty empty 17 7 0 10 -262144
-1 -1;
#X obj 1671 222 delay 10;
#X msg 1730 252 1.414;
#X msg 1785 252 -0.9998;
#X msg 1847 252 1;
#X msg 1894 252 -1.414;
#X msg 1956 252 0;
#X text 1994 251 Bandpass;
#X obj 1730 291 s a1;
#X obj 1785 291 s a2;
#X obj 1847 291 s a3;
#X obj 1894 291 s a4;
#X obj 1956 291 s a5;
#X obj 1763 390 bng 15 250 50 0 empty empty empty 17 7 0 10 -262144
-1 -1;
#X obj 1676 459 bng 15 250 50 0 empty empty empty 17 7 0 10 -262144
-1 -1;
#X obj 1676 420 delay 10;
#X msg 1735 450 1.414;
#X msg 1790 450 -0.9998;
#X msg 1852 450 1;
#X msg 1899 450 -1.414;
#X msg 1961 450 0;
#X text 1999 449 Bandpass;
#X obj 1735 489 s a1;
#X obj 1790 489 s a2;
#X obj 1852 489 s a3;
#X obj 1899 489 s a4;
#X obj 1961 489 s a5;
#X msg 1009 550 \; lowpass1 (bang) \;;
#X msg 1009 588 \; lowpass2 (bang) \;;
#X msg 1007 630 \; lowpass3 (bang) \;;
#X msg 1006 675 \; lowpass4 (bang) \;;
#X msg 1006 714 \; lowpass5 (bang) \;;
#X msg 1003 757 \; lowpass6 (bang) \;;
#X msg 1003 797 \; lowpass7 (bang) \;;
#X obj 583 123 s a;
#X obj 616 124 s b;
#X obj 652 127 s c;
#X obj 685 128 s d;
#X obj 721 126 s e;
#X obj 755 127 s f;
#X obj 1380 259 r a;
#X obj 967 259 r b;
#X obj 944 71 r c;
#X obj 1411 56 r d;
#X obj 1785 162 r e;
#X obj 1789 360 r f;
#X msg 520 45 2;
#X msg 477 48 0;
#X obj 1756 569 bng 15 250 50 0 empty empty empty 17 7 0 10 -262144
-1 -1;
#X obj 1669 638 bng 15 250 50 0 empty empty empty 17 7 0 10 -262144
-1 -1;
#X obj 1669 599 delay 10;
#X msg 1728 629 1.414;
#X msg 1783 629 -0.9998;
#X msg 1845 629 1;
#X msg 1892 629 -1.414;
#X msg 1954 629 0;
#X text 1992 628 Bandpass;
#X obj 1728 668 s a1;
#X obj 1783 668 s a2;
#X obj 1845 668 s a3;
#X obj 1892 668 s a4;
#X obj 1954 668 s a5;
#X obj 1782 539 r g;
#X obj 627 71 select 0 1 2 3 4 5 6;
#X obj 787 129 s f;
#X obj 383 155 r fileName;
#X obj 632 32 r filtertype;
#X msg 1237 567 \; fileName files/filtered/2a85260b_filtered-kopi.wav
\;;
#X msg 1238 612 \; newFileName files/filtered/test1.wav \;;
#X obj 697 331 soundfiler;
#X obj 505 372 delay 10;
#X obj 495 350 bng 15 250 50 0 empty empty empty 17 7 0 10 -262144
-1 -1;
#X connect 0 0 4 0;
#X connect 1 0 40 0;
#X connect 2 0 1 0;
#X connect 2 0 6 0;
#X connect 2 0 27 0;
#X connect 2 0 7 0;
#X connect 2 0 9 0;
#X connect 2 0 10 0;
#X connect 4 0 3 1;
#X connect 4 0 3 0;
#X connect 4 0 19 0;
#X connect 6 0 43 0;
#X connect 7 0 41 0;
#X connect 8 0 40 0;
#X connect 9 0 42 0;
#X connect 10 0 8 0;
#X connect 11 0 13 0;
#X connect 11 0 16 0;
#X connect 11 0 18 0;
#X connect 11 0 15 0;
#X connect 11 0 17 0;
#X connect 11 0 14 0;
#X connect 12 0 35 0;
#X connect 13 0 12 0;
#X connect 14 0 35 0;
#X connect 15 0 36 0;
#X connect 16 0 37 0;
#X connect 17 0 38 0;
#X connect 18 0 39 0;
#X connect 20 0 19 0;
#X connect 21 0 19 0;
#X connect 22 0 24 0;
#X connect 22 0 29 0;
#X connect 22 0 28 0;
#X connect 22 0 26 0;
#X connect 22 0 30 0;
#X connect 22 0 25 0;
#X connect 23 0 45 0;
#X connect 24 0 23 0;
#X connect 25 0 49 0;
#X connect 26 0 47 0;
#X connect 27 0 44 0;
#X connect 28 0 46 0;
#X connect 29 0 45 0;
#X connect 30 0 48 0;
#X connect 34 0 74 0;
#X connect 50 0 0 0;
#X connect 51 0 0 1;
#X connect 52 0 0 2;
#X connect 53 0 0 3;
#X connect 54 0 0 4;
#X connect 55 0 56 0;
#X connect 55 0 78 0;
#X connect 55 0 19 0;
#X connect 57 0 55 0;
#X connect 58 0 63 0;
#X connect 59 0 65 0;
#X connect 60 0 64 0;
#X connect 61 0 66 0;
#X connect 62 0 67 0;
#X connect 63 0 68 0;
#X connect 64 0 70 0;
#X connect 65 0 69 0;
#X connect 66 0 71 0;
#X connect 67 0 72 0;
#X connect 73 0 34 0;
#X connect 76 0 77 0;
#X connect 78 0 85 0;
#X connect 78 1 82 0;
#X connect 79 0 76 0;
#X connect 80 0 78 0;
#X connect 80 0 20 0;
#X connect 81 0 78 0;
#X connect 82 0 21 0;
#X connect 83 0 5 0;
#X connect 83 0 172 0;
#X connect 85 0 4 0;
#X connect 86 0 88 0;
#X connect 86 0 91 0;
#X connect 86 0 93 0;
#X connect 86 0 90 0;
#X connect 86 0 92 0;
#X connect 86 0 89 0;
#X connect 87 0 95 0;
#X connect 88 0 87 0;
#X connect 89 0 95 0;
#X connect 90 0 96 0;
#X connect 91 0 97 0;
#X connect 92 0 98 0;
#X connect 93 0 99 0;
#X connect 100 0 102 0;
#X connect 100 0 105 0;
#X connect 100 0 107 0;
#X connect 100 0 104 0;
#X connect 100 0 106 0;
#X connect 100 0 103 0;
#X connect 101 0 109 0;
#X connect 102 0 101 0;
#X connect 103 0 109 0;
#X connect 104 0 110 0;
#X connect 105 0 111 0;
#X connect 106 0 112 0;
#X connect 107 0 113 0;
#X connect 114 0 116 0;
#X connect 114 0 119 0;
#X connect 114 0 121 0;
#X connect 114 0 118 0;
#X connect 114 0 120 0;
#X connect 114 0 117 0;
#X connect 115 0 123 0;
#X connect 116 0 115 0;
#X connect 117 0 123 0;
#X connect 118 0 124 0;
#X connect 119 0 125 0;
#X connect 120 0 126 0;
#X connect 121 0 127 0;
#X connect 141 0 22 0;
#X connect 142 0 2 0;
#X connect 143 0 11 0;
#X connect 144 0 86 0;
#X connect 145 0 100 0;
#X connect 146 0 114 0;
#X connect 147 0 164 0;
#X connect 148 0 164 0;
#X connect 149 0 151 0;
#X connect 149 0 154 0;
#X connect 149 0 156 0;
#X connect 149 0 153 0;
#X connect 149 0 155 0;
#X connect 149 0 152 0;
#X connect 150 0 158 0;
#X connect 151 0 150 0;
#X connect 152 0 158 0;
#X connect 153 0 159 0;
#X connect 154 0 160 0;
#X connect 155 0 161 0;
#X connect 156 0 162 0;
#X connect 163 0 149 0;
#X connect 164 0 135 0;
#X connect 164 1 136 0;
#X connect 164 2 137 0;
#X connect 164 3 138 0;
#X connect 164 4 139 0;
#X connect 164 5 140 0;
#X connect 164 6 165 0;
#X connect 166 0 57 0;
#X connect 167 0 164 0;
#X connect 171 0 80 0;
#X connect 172 0 171 0;
