#N canvas 3635 108 992 764 12;
#X obj 102 11 loadbang;
#X obj 106 341 readsf~;
#X msg 5 267 open ./audioMidiSum.wav;
#X msg 101 300 start;
#X msg 159 299 stop;
#X obj 131 713 dac~;
#X msg 773 546 start;
#X msg 832 555 stop;
#X msg 653 517 open ./PDManip.wav;
#X obj 17 72 r duration;
#X obj 19 147 delay;
#X floatatom 19 123 10 0 0 0 - - -;
#X obj 774 72 t b b b b;
#X obj 789 135 delay 500;
#X obj 710 135 delay 600;
#X obj 18 97 + 1000;
#X msg 19 9 \; pd dsp 1;
#X obj 849 580 bng 15 250 50 0 empty empty empty 17 7 0 10 -262144
-1 -1;
#X msg 877 659 \; pd quit;
#X obj 835 530 delay 1000;
#N canvas 2668 157 952 643 filters 0;
#X obj 91 91 inlet~;
#X obj 504 544 outlet~;
#X obj 781 370 vline~;
#X msg 793 230 1 500 0 \, 0 800 1000;
#X obj 837 121 tgl 15 0 empty empty empty 17 7 0 10 -262144 -1 -1 1
1;
#X obj 507 446 *~;
#X obj 857 96 loadbang;
#X obj 206 182 vline~;
#X obj 206 248 snapshot~;
#X floatatom 210 287 5 0 0 0 - - -;
#X obj 203 95 bng 15 250 50 0 empty empty empty 17 7 0 10 -262144 -1
-1;
#X obj 201 58 metro 9000;
#X obj 826 144 metro 1;
#X obj 221 350 bp~;
#X floatatom 261 343 5 0 0 0 - - -;
#X msg 265 309 10;
#X msg 206 123 100 2000 \, 600 2000 4000;
#X obj 424 183 vline~;
#X obj 424 249 snapshot~;
#X floatatom 428 288 5 0 0 0 - - -;
#X obj 421 96 bng 15 250 50 0 empty empty empty 17 7 0 10 -262144 -1
-1;
#X obj 439 351 bp~;
#X floatatom 479 344 5 0 0 0 - - -;
#X msg 483 310 10;
#X obj 419 59 metro 8000;
#X msg 424 124 400 2000 \, 1500 2000 4000;
#X obj 612 176 vline~;
#X obj 612 242 snapshot~;
#X floatatom 616 281 5 0 0 0 - - -;
#X obj 609 89 bng 15 250 50 0 empty empty empty 17 7 0 10 -262144 -1
-1;
#X obj 627 344 bp~;
#X floatatom 667 337 5 0 0 0 - - -;
#X msg 671 303 10;
#X obj 607 52 metro 7000;
#X msg 612 117 600 2000 \, 800 2000 4000;
#X obj 276 396 *~ 1.1;
#X connect 0 0 13 0;
#X connect 0 0 21 0;
#X connect 0 0 30 0;
#X connect 2 0 5 1;
#X connect 3 0 2 0;
#X connect 4 0 11 0;
#X connect 4 0 12 0;
#X connect 4 0 24 0;
#X connect 4 0 33 0;
#X connect 5 0 1 0;
#X connect 6 0 4 0;
#X connect 6 0 15 0;
#X connect 6 0 23 0;
#X connect 6 0 32 0;
#X connect 7 0 8 0;
#X connect 8 0 9 0;
#X connect 9 0 13 1;
#X connect 10 0 16 0;
#X connect 11 0 10 0;
#X connect 12 0 3 0;
#X connect 12 0 8 0;
#X connect 12 0 18 0;
#X connect 12 0 27 0;
#X connect 13 0 35 0;
#X connect 14 0 13 2;
#X connect 15 0 14 0;
#X connect 16 0 7 0;
#X connect 17 0 18 0;
#X connect 18 0 19 0;
#X connect 19 0 21 1;
#X connect 20 0 25 0;
#X connect 21 0 5 0;
#X connect 22 0 21 2;
#X connect 23 0 22 0;
#X connect 24 0 20 0;
#X connect 25 0 17 0;
#X connect 26 0 27 0;
#X connect 27 0 28 0;
#X connect 28 0 30 1;
#X connect 29 0 34 0;
#X connect 30 0 5 0;
#X connect 31 0 30 2;
#X connect 32 0 31 0;
#X connect 33 0 29 0;
#X connect 34 0 26 0;
#X connect 35 0 5 0;
#X restore 128 473 pd filters;
#N canvas 2736 330 1366 975 reverb 0;
#X obj 50 32 inlet~;
#X obj 74 253 rev3~ 100 90 3000 20;
#X floatatom 183 174 5 0 0 0 - - -;
#X floatatom 262 176 5 0 0 0 - - -;
#X obj 110 865 outlet~;
#X obj 194 863 outlet~;
#X obj 269 43 loadbang;
#X msg 187 118 90;
#X msg 262 131 80;
#X connect 0 0 1 0;
#X connect 1 0 4 0;
#X connect 1 1 5 0;
#X connect 2 0 1 2;
#X connect 3 0 1 3;
#X connect 6 0 7 0;
#X connect 6 0 8 0;
#X connect 7 0 2 0;
#X connect 8 0 3 0;
#X restore 104 564 pd reverb;
#X obj 60 475 *~ 0.25;
#X obj 92 515 *~ 1;
#X obj 738 627 writesf~ 2;
#X obj 184 662 *~ 0.5;
#X obj 76 657 *~ 0.5;
#X obj 851 613 delay 500;
#X obj 88 611 *~ 1;
#X obj 176 614 *~ 1;
#X obj 31 561 *~ 0.5;
#X connect 0 0 16 0;
#X connect 0 0 12 0;
#X connect 1 0 20 0;
#X connect 1 0 22 0;
#X connect 2 0 1 0;
#X connect 3 0 1 0;
#X connect 4 0 1 0;
#X connect 6 0 24 0;
#X connect 7 0 17 0;
#X connect 7 0 24 0;
#X connect 8 0 24 0;
#X connect 9 0 15 0;
#X connect 10 0 4 0;
#X connect 10 0 19 0;
#X connect 11 0 10 0;
#X connect 12 0 14 0;
#X connect 12 1 13 0;
#X connect 12 2 2 0;
#X connect 12 3 8 0;
#X connect 13 0 6 0;
#X connect 14 0 3 0;
#X connect 15 0 11 0;
#X connect 17 0 27 0;
#X connect 19 0 7 0;
#X connect 20 0 23 0;
#X connect 21 0 28 0;
#X connect 21 1 29 0;
#X connect 22 0 23 0;
#X connect 23 0 21 0;
#X connect 23 0 30 0;
#X connect 25 0 5 1;
#X connect 25 0 24 1;
#X connect 26 0 5 0;
#X connect 26 0 24 0;
#X connect 27 0 18 0;
#X connect 28 0 26 0;
#X connect 29 0 25 0;
#X connect 30 0 26 0;
#X connect 30 0 25 0;
