#N canvas 0 25 1680 997 12;
#X obj 249 28 adc~ 1 2 3 4 5 6 7 8 9 10 11 12 13 14 15 16, f 102;
#X msg 222 232 start;
#X msg 224 265 stop;
#X msg 226 301 print;
#X obj 335 306 writesf~ 8, f 46;
#X msg 284 179 open ReMixedSpatialized.wav;
#N canvas 0 25 855 737 extra 0;
#N canvas 0 22 450 278 (subpatch) 0;
#X array Track1 192000 float 2;
#X coords 0 1 192000 -1 600 80 1 0 0;
#X restore 99 20 graph;
#N canvas 0 22 450 278 (subpatch) 0;
#X array Track2 100 float 3;
#A 0 0 0 0 0 0 0 0 0 0 0 0 0 0 0 0 0 0 0 0 0 0 0 0 0 0 0 0 0 0 0 0
0 0 0 0 0 0 0 0 0 0 0 0 0 0 0 0 0 0 0 0 0 0 0 0 0 0 0 0 0 0 0 0 0 0
0 0 0 0 0 0 0 0 0 0 0 0 0 0 0 0 0 0 0 0 0 0 0 0 0 0 0 0 0 0 0 0 0 0
0;
#X coords 0 1 100 -1 600 80 1 0 0;
#X restore 97 122 graph;
#N canvas 0 22 450 278 (subpatch) 0;
#X array Track3 100 float 3;
#A 0 0 0 0 0 0 0 0 0 0 0 0 0 0 0 0 0 0 0 0 0 0 0 0 0 0 0 0 0 0 0 0
0 0 0 0 0 0 0 0 0 0 0 0 0 0 0 0 0 0 0 0 0 0 0 0 0 0 0 0 0 0 0 0 0 0
0 0 0 0 0 0 0 0 0 0 0 0 0 0 0 0 0 0 0 0 0 0 0 0 0 0 0 0 0 0 0 0 0 0
0;
#X coords 0 1 100 -1 600 80 1 0 0;
#X restore 96 218 graph;
#N canvas 0 22 450 278 (subpatch) 0;
#X array Track4 100 float 3;
#A 0 0 0 0 0 0 0 0 0 0 0 0 0 0 0 0 0 0 0 0 0 0 0 0 0 0 0 0 0 0 0 0
0 0 0 0 0 0 0 0 0 0 0 0 0 0 0 0 0 0 0 0 0 0 0 0 0 0 0 0 0 0 0 0 0 0
0 0 0 0 0 0 0 0 0 0 0 0 0 0 0 0 0 0 0 0 0 0 0 0 0 0 0 0 0 0 0 0 0 0
0;
#X coords 0 1 100 -1 600 80 1 0 0;
#X restore 96 318 graph;
#N canvas 0 22 450 278 (subpatch) 0;
#X array Track5 100 float 3;
#A 0 0 0 0 0 0 0 0 0 0 0 0 0 0 0 0 0 0 0 0 0 0 0 0 0 0 0 0 0 0 0 0
0 0 0 0 0 0 0 0 0 0 0 0 0 0 0 0 0 0 0 0 0 0 0 0 0 0 0 0 0 0 0 0 0 0
0 0 0 0 0 0 0 0 0 0 0 0 0 0 0 0 0 0 0 0 0 0 0 0 0 0 0 0 0 0 0 0 0 0
0;
#X coords 0 1 100 -1 600 80 1 0 0;
#X restore 96 420 graph;
#N canvas 0 22 450 278 (subpatch) 0;
#X array Track6 100 float 3;
#A 0 0 0 0 0 0 0 0 0 0 0 0 0 0 0 0 0 0 0 0 0 0 0 0 0 0 0 0 0 0 0 0
0 0 0 0 0 0 0 0 0 0 0 0 0 0 0 0 0 0 0 0 0 0 0 0 0 0 0 0 0 0 0 0 0 0
0 0 0 0 0 0 0 0 0 0 0 0 0 0 0 0 0 0 0 0 0 0 0 0 0 0 0 0 0 0 0 0 0 0
0;
#X coords 0 1 100 -1 600 80 1 0 0;
#X restore 95 519 graph;
#N canvas 0 22 450 278 (subpatch) 0;
#X array Track7 100 float 3;
#A 0 0 0 0 0 0 0 0 0 0 0 0 0 0 0 0 0 0 0 0 0 0 0 0 0 0 0 0 0 0 0 0
0 0 0 0 0 0 0 0 0 0 0 0 0 0 0 0 0 0 0 0 0 0 0 0 0 0 0 0 0 0 0 0 0 0
0 0 0 0 0 0 0 0 0 0 0 0 0 0 0 0 0 0 0 0 0 0 0 0 0 0 0 0 0 0 0 0 0 0
0;
#X coords 0 1 100 -1 600 80 1 0 0;
#X restore 94 616 graph;
#N canvas 0 22 450 278 (subpatch) 0;
#X array Track8 100 float 3;
#A 0 0 0 0 0 0 0 0 0 0 0 0 0 0 0 0 0 0 0 0 0 0 0 0 0 0 0 0 0 0 0 0
0 0 0 0 0 0 0 0 0 0 0 0 0 0 0 0 0 0 0 0 0 0 0 0 0 0 0 0 0 0 0 0 0 0
0 0 0 0 0 0 0 0 0 0 0 0 0 0 0 0 0 0 0 0 0 0 0 0 0 0 0 0 0 0 0 0 0 0
0;
#X coords 0 1 100 -1 600 80 1 0 0;
#X restore 95 716 graph;
#X obj 858 687 soundfiler;
#X obj 909 611 tabread4~;
#X obj 921 313 openpanel;
#X text 921 223 Load soundfile;
#X obj 921 405 soundfiler;
#X floatatom 921 446 10 0 0 0 - - -;
#X obj 858 380 bng 15 250 50 0 empty empty empty 17 7 0 10 -262144
-1 -1;
#X obj 921 497 expr 44100 / $f1;
#X floatatom 921 543 10 0 0 0 - - -;
#X text 1020 534 Speed in Hz;
#X text 1048 467 Find speed;
#X obj 921 284 bng 15 250 50 0 empty empty empty 17 7 0 10 -262144
-1 -1;
#X msg 921 359 read -resize \$1 Track1;
#X obj 1022 612 tabwrite~;
#X msg 1390 557;
#X msg 867 655 read -resize ../files/DrumMachine_SpatialAudioP2.aif
Track2;
#X text 1487 719 Records to path;
#X connect 10 0 20 0;
#X connect 12 0 13 0;
#X connect 13 0 15 0;
#X connect 14 0 13 0;
#X connect 15 0 16 0;
#X connect 19 0 10 0;
#X connect 20 0 12 0;
#X connect 23 0 8 0;
#X restore 137 67 pd extra;
#X obj 115 500 vu 15 120 empty empty -1 -8 0 10 -66577 -1 1 0;
#X obj 88 413 env~;
#X obj 88 444 - 100;
#X obj 88 382 r~ a1;
#X obj 183 500 vu 15 120 empty empty -1 -8 0 10 -66577 -1 1 0;
#X obj 156 413 env~;
#X obj 156 444 - 100;
#X obj 257 500 vu 15 120 empty empty -1 -8 0 10 -66577 -1 1 0;
#X obj 230 413 env~;
#X obj 333 500 vu 15 120 empty empty -1 -8 0 10 -66577 -1 1 0;
#X obj 306 413 env~;
#X obj 306 444 - 100;
#X obj 407 500 vu 15 120 empty empty -1 -8 0 10 -66577 -1 1 0;
#X obj 380 413 env~;
#X obj 479 500 vu 15 120 empty empty -1 -8 0 10 -66577 -1 1 0;
#X obj 452 413 env~;
#X obj 564 500 vu 15 120 empty empty -1 -8 0 10 -66577 -1 1 0;
#X obj 537 413 env~;
#X obj 638 500 vu 15 120 empty empty -1 -8 0 10 -66577 -1 1 0;
#X obj 612 413 env~;
#X obj 156 382 r~ a2;
#X obj 230 382 r~ a3;
#X obj 306 382 r~ a4;
#X obj 380 382 r~ a5;
#X obj 452 382 r~ a6;
#X obj 537 382 r~ a7;
#X obj 612 382 r~ a8;
#X obj 881 725 rev3~, f 18;
#X obj 1031 729 rev3~, f 18;
#X obj 1167 725 rev3~, f 18;
#X obj 1322 726 rev3~, f 18;
#X obj 114 750 vu 15 120 empty empty -1 -8 0 10 -66577 -1 1 0;
#X obj 87 663 env~;
#X obj 87 694 - 100;
#X obj 182 750 vu 15 120 empty empty -1 -8 0 10 -66577 -1 1 0;
#X obj 155 663 env~;
#X obj 155 694 - 100;
#X obj 256 750 vu 15 120 empty empty -1 -8 0 10 -66577 -1 1 0;
#X obj 229 663 env~;
#X obj 229 694 - 100;
#X obj 332 750 vu 15 120 empty empty -1 -8 0 10 -66577 -1 1 0;
#X obj 305 663 env~;
#X obj 305 694 - 100;
#X obj 406 750 vu 15 120 empty empty -1 -8 0 10 -66577 -1 1 0;
#X obj 379 663 env~;
#X obj 379 694 - 100;
#X obj 478 750 vu 15 120 empty empty -1 -8 0 10 -66577 -1 1 0;
#X obj 451 663 env~;
#X obj 451 694 - 100;
#X obj 563 750 vu 15 120 empty empty -1 -8 0 10 -66577 -1 1 0;
#X obj 536 663 env~;
#X obj 536 694 - 100;
#X obj 637 750 vu 15 120 empty empty -1 -8 0 10 -66577 -1 1 0;
#X obj 611 663 env~;
#X obj 611 694 - 100;
#X obj 86 632 r~ c1;
#X obj 155 632 r~ c2;
#X obj 229 632 r~ c3;
#X obj 305 632 r~ c4;
#X obj 379 632 r~ c5;
#X obj 451 632 r~ c6;
#X obj 536 632 r~ c7;
#X obj 611 632 r~ c8;
#X obj 879 785 s~ c1;
#X obj 928 785 s~ c2;
#X obj 1028 788 s~ c3;
#X obj 1070 788 s~ c4;
#X obj 1168 785 s~ c5;
#X obj 1222 785 s~ c6;
#X obj 1319 784 s~ c7;
#X obj 1360 784 s~ c9;
#X obj 868 544 r~ a1;
#X obj 936 544 r~ a2;
#X obj 1011 544 r~ a3;
#X obj 1087 544 r~ a4;
#X obj 1161 544 r~ a5;
#X obj 1233 544 r~ a6;
#X obj 1318 544 r~ a7;
#X obj 1393 544 r~ a8;
#X obj 323 244 r~ c1;
#X obj 377 244 r~ c2;
#X obj 425 244 r~ c3;
#X obj 471 245 r~ c4;
#X obj 517 247 r~ c5;
#X obj 564 247 r~ c6;
#X obj 614 248 r~ c7;
#X obj 661 247 r~ c8;
#X floatatom 1411 145 5 0 0 0 LeveldB LeveldBSet LeveldB;
#X floatatom 1410 174 5 0 0 0 Liveliness LivelinessSet Liveliness;
#X obj 746 660 r Liveliness;
#X floatatom 738 697 5 0 0 0 - - -;
#X msg 1335 50 \; pd dsp 1 \; LeveldBSet 1 \; LivelinessSet 30 \;;
#X obj 765 612 r LeveldB;
#X floatatom 729 635 5 0 0 0 - - -;
#X obj 636 76 s~ a1;
#X obj 685 76 s~ a2;
#X obj 734 76 s~ a3;
#X obj 776 76 s~ a4;
#X obj 822 76 s~ a5;
#X obj 877 76 s~ a6;
#X obj 925 76 s~ a7;
#X obj 966 76 s~ a9;
#X obj 380 444 - 100;
#X obj 452 444 - 100;
#X obj 537 444 - 100;
#X obj 612 444 - 100;
#X obj 903 371 vu 15 120 empty empty -1 -8 0 10 -66577 -1 1 0;
#X obj 877 284 env~;
#X obj 877 315 - 100;
#X obj 877 253 r~ test;
#X obj 230 442 - 80;
#X obj 831 884 dac~ 1 2 3 4 5 6 7 8, f 86;
#X obj 1147 320 noise~;
#X obj 1120 394 *~;
#X obj 1248 306 vsl 15 128 0 0.5 0 0 empty empty empty 0 -9 0 10 -262144
-1 -1 400 1;
#X obj 701 138 s~ test;
#X connect 0 8 101 0;
#X connect 0 9 102 0;
#X connect 0 10 103 0;
#X connect 0 10 122 0;
#X connect 0 11 104 0;
#X connect 0 12 105 0;
#X connect 0 13 106 0;
#X connect 0 14 107 0;
#X connect 0 15 108 0;
#X connect 1 0 4 0;
#X connect 2 0 4 0;
#X connect 3 0 4 0;
#X connect 5 0 4 0;
#X connect 8 0 9 0;
#X connect 9 0 7 0;
#X connect 10 0 8 0;
#X connect 12 0 13 0;
#X connect 13 0 11 0;
#X connect 15 0 117 0;
#X connect 17 0 18 0;
#X connect 18 0 16 0;
#X connect 20 0 109 0;
#X connect 22 0 110 0;
#X connect 24 0 111 0;
#X connect 26 0 112 0;
#X connect 27 0 12 0;
#X connect 28 0 15 0;
#X connect 29 0 17 0;
#X connect 30 0 20 0;
#X connect 31 0 22 0;
#X connect 32 0 24 0;
#X connect 33 0 26 0;
#X connect 34 0 70 0;
#X connect 34 0 118 0;
#X connect 34 1 71 0;
#X connect 34 1 118 1;
#X connect 35 0 72 0;
#X connect 35 0 118 2;
#X connect 35 1 73 0;
#X connect 35 1 118 3;
#X connect 36 0 74 0;
#X connect 36 0 118 4;
#X connect 36 1 75 0;
#X connect 36 1 118 5;
#X connect 37 0 76 0;
#X connect 37 0 118 6;
#X connect 37 1 77 0;
#X connect 37 1 118 7;
#X connect 39 0 40 0;
#X connect 40 0 38 0;
#X connect 42 0 43 0;
#X connect 43 0 41 0;
#X connect 45 0 46 0;
#X connect 46 0 44 0;
#X connect 48 0 49 0;
#X connect 49 0 47 0;
#X connect 51 0 52 0;
#X connect 52 0 50 0;
#X connect 54 0 55 0;
#X connect 55 0 53 0;
#X connect 57 0 58 0;
#X connect 58 0 56 0;
#X connect 60 0 61 0;
#X connect 61 0 59 0;
#X connect 62 0 39 0;
#X connect 63 0 42 0;
#X connect 64 0 45 0;
#X connect 65 0 48 0;
#X connect 66 0 51 0;
#X connect 67 0 54 0;
#X connect 68 0 57 0;
#X connect 69 0 60 0;
#X connect 78 0 34 0;
#X connect 79 0 34 1;
#X connect 80 0 35 0;
#X connect 81 0 35 1;
#X connect 82 0 36 0;
#X connect 83 0 36 1;
#X connect 84 0 37 0;
#X connect 85 0 37 1;
#X connect 86 0 4 0;
#X connect 87 0 4 1;
#X connect 88 0 4 2;
#X connect 89 0 4 3;
#X connect 90 0 4 4;
#X connect 91 0 4 5;
#X connect 92 0 4 6;
#X connect 93 0 4 7;
#X connect 96 0 34 3;
#X connect 96 0 35 3;
#X connect 96 0 36 3;
#X connect 96 0 37 3;
#X connect 96 0 97 0;
#X connect 99 0 34 2;
#X connect 99 0 35 2;
#X connect 99 0 36 2;
#X connect 99 0 37 2;
#X connect 99 0 100 0;
#X connect 109 0 19 0;
#X connect 110 0 21 0;
#X connect 111 0 23 0;
#X connect 112 0 25 0;
#X connect 114 0 115 0;
#X connect 115 0 113 0;
#X connect 116 0 114 0;
#X connect 117 0 14 0;
#X connect 119 0 120 0;
#X connect 120 0 118 4;
#X connect 121 0 120 1;
